<svg id="Layer_1" data-name="Layer 1" xmlns="http://www.w3.org/2000/svg" xmlns:xlink="http://www.w3.org/1999/xlink" viewBox="0 0 64 64"><defs><style>.cls-1{fill:url(#linear-gradient);}.cls-2{fill:#f0f0f0;}</style><linearGradient id="linear-gradient" x1="32" y1="64" x2="32" gradientUnits="userSpaceOnUse"><stop offset="0" stop-color="#fce" stop-opacity="0.2"/><stop offset="0.03" stop-color="#ffc2eb" stop-opacity="0.28"/><stop offset="0.09" stop-color="#ffb3e6" stop-opacity="0.4"/><stop offset="0.15" stop-color="#ffa8e2" stop-opacity="0.49"/><stop offset="0.21" stop-color="#ff9fdf" stop-opacity="0.55"/><stop offset="0.29" stop-color="#ff9bde" stop-opacity="0.59"/><stop offset="0.38" stop-color="#f9d" stop-opacity="0.6"/><stop offset="0.5" stop-color="#ff8bd8" stop-opacity="0.65"/><stop offset="0.72" stop-color="#ff68cd" stop-opacity="0.79"/><stop offset="1" stop-color="#f3b"/></linearGradient></defs><rect class="cls-1" width="64" height="64" rx="2"/><path class="cls-2" d="M48.88,21.77a8.46,8.46,0,0,1-4-8.89,1,1,0,0,0-.8-1.18,1,1,0,0,0-1.17.8,10.46,10.46,0,0,0,1.24,7.23,26.55,26.55,0,0,0-12.45.6,26.61,26.61,0,0,0-12.89-.51,10.43,10.43,0,0,0,1.3-7.32,1,1,0,1,0-2,.38,8.46,8.46,0,0,1-4,8.89,12.69,12.69,0,0,0-2,21.57l2.66,7.8a1,1,0,0,0,.94.67,1,1,0,0,0,.33-.05,1,1,0,0,0,.62-1.27L13.89,42.4a1,1,0,0,0-.37-.5,10.7,10.7,0,1,1,10.2,1.18,1,1,0,1,0,.76,1.86,12.74,12.74,0,0,0,6-5.08v11a1,1,0,0,0,2,0v-11a12.74,12.74,0,0,0,6,5.08,1,1,0,0,0,.76-1.86,10.7,10.7,0,1,1,10.2-1.18,1,1,0,0,0-.37.5l-2.76,8.09A1,1,0,0,0,47,51.76a1,1,0,0,0,.33.05,1,1,0,0,0,.94-.67l2.66-7.8a12.69,12.69,0,0,0-2-21.57ZM31.5,28.49a12.74,12.74,0,0,0-7.38-7.22,24.28,24.28,0,0,1,7.28,1.05h.1l.19,0,.2,0H32a24.17,24.17,0,0,1,6.89-1.05A12.74,12.74,0,0,0,31.5,28.49Z"/></svg>