<svg id="Layer_1" data-name="Layer 1" xmlns="http://www.w3.org/2000/svg" xmlns:xlink="http://www.w3.org/1999/xlink" viewBox="0 0 64 64"><defs><style>.cls-1{fill:url(#linear-gradient);}.cls-2,.cls-3{fill:none;stroke:#f0f0f0;stroke-linecap:round;stroke-linejoin:round;}.cls-2{stroke-width:3px;}.cls-3{stroke-width:2px;}.cls-4{fill:#f0f0f0;}</style><linearGradient id="linear-gradient" x1="32" y1="64" x2="32" gradientUnits="userSpaceOnUse"><stop offset="0" stop-color="#fce" stop-opacity="0.2"/><stop offset="0.03" stop-color="#ffc2eb" stop-opacity="0.28"/><stop offset="0.09" stop-color="#ffb3e6" stop-opacity="0.4"/><stop offset="0.15" stop-color="#ffa8e2" stop-opacity="0.49"/><stop offset="0.21" stop-color="#ff9fdf" stop-opacity="0.55"/><stop offset="0.29" stop-color="#ff9bde" stop-opacity="0.59"/><stop offset="0.38" stop-color="#f9d" stop-opacity="0.6"/><stop offset="0.5" stop-color="#ff8bd8" stop-opacity="0.65"/><stop offset="0.72" stop-color="#ff68cd" stop-opacity="0.79"/><stop offset="1" stop-color="#f3b"/></linearGradient></defs><rect class="cls-1" width="64" height="64" rx="2"/><circle class="cls-2" cx="32" cy="32" r="19"/><circle class="cls-3" cx="32" cy="32" r="14"/><path class="cls-4" d="M9.12,17a.87.87,0,0,0-.87.88V29.25H7.38V17.88a.88.88,0,0,0-1.76,0V29.25H4.75V17.88a.88.88,0,1,0-1.75,0V30.12a.87.87,0,0,0,.88.88H5.62V51.12a.88.88,0,1,0,1.76,0V31H9.12a.87.87,0,0,0,.88-.88V17.88A.87.87,0,0,0,9.12,17Z"/><path class="cls-4" d="M59,17c-2.21,0-4,2.24-4,5V35.52A1.41,1.41,0,0,0,56.36,37H58V52a1,1,0,0,0,2,0V18A1,1,0,0,0,59,17Z"/></svg>