<svg id="Layer_1" data-name="Layer 1" xmlns="http://www.w3.org/2000/svg" viewBox="0 0 150 150"><defs><style>.cls-1{fill:#e00ea2;}.cls-2{fill:#030002;}</style></defs><path class="cls-1" d="M138.66,7.41c-.65-.23-1.25.92-1.94,1.12-.29-.29-.06-.25,1.51-4.52.61-1.68-.1-1.88-.43-1.63-1,.82-3.29,6.45-5.09,8-.84.73-.11.48-1.79,2.14-4.89,4.84-8.37,11.55-12.43,15.15-1.41,1.25-3.15,5.18-3.62,6.78-.73,2.57-3.54,4.25-6.81,7.93-.85,1-.36,2.11-1.91,2.92s-1.56,3.66-2.8,3.32a.82.82,0,0,1-.61-.84c0-2.37.84-1.66,3-2.69,1-.46,1.9-1.67,1-2.55a1.53,1.53,0,0,1-.58-1.48c.16-.87-1-.51-.69-1.32.56-1.59-1.61-.15-.63-2.26.81-1.76-1.24-1.89-3.34-2.45-1.13-.29-.5-1-1-1.79-1.65-2.36-3.2-2-4.17-3.24C94,27.1,83.85,34.63,84.09,38.71c.2,3.58.4,4-.29,4.93a18.15,18.15,0,0,1-3.88,3.7c-1.64,1-1,1.76-3.52,3.72s-2.74,2.36-3.32,5.19a27.08,27.08,0,0,1-1.42,5.07C71,62.91,68.11,74.5,68.39,78.23c.1,1.4,1.64,2.07,3.08,1.58q2.5-.84,5-1.61a41.66,41.66,0,0,0,8.12-3.79c0,.84.14,1.56.16,2.08.08,1.7-.19,7-1.58,5.67,0,0,.27,2.2,1.91-.59,0,0,0,7.9-2.89,6.44,0,0-.38,1,.91,1.06,0,0-1.94,2.07-2.75.12,0,0-1,1.44,1.41,2.29s4-1.43,5-3.24a3.33,3.33,0,0,1-.75,2.9c-1.17,1.24-1.76,1.31-1.95.81,0,0-.85,1.1,1.35.83s3.48-.43,6.89-5.55c0,0-.69,2.93-2.69,4.1,0,0,2.75.75,4.61-7.69,0,0,.66,1.08,1.24.46,0,0-1.12-.74-.32-2.75a15.56,15.56,0,0,0,.95-4.12s.54,2.43,1.33,2.16c0,0-.91-.35-.82-2.5a11.48,11.48,0,0,0,0-1.3c.09.16.18.33.26.5,1.28,2.24,1.26,2.83,2,6a10.17,10.17,0,0,1-.48,3.54c-.77,2.74-8.07,7.83-11,16.1-2.62,7.44,1.65,12.53,2.16,19.45-.22.18-.3.22-2.14.18-34.19,0-33.21-1-33.21,2.26,0,24.37-.46,23.33,1.18,23.79.65.19,70.63.11,72.31.11,9.57,1.94,10.92-9.76,6.61-14.45-1.66-1.8-1.92-1.75-1.72-2.11,2.93,0,4.74.64,3.44-4.86-.73-3.07-2.64-4.36-5.49-4.82-1.42-.22-1,.06-1.76-1.23-5.65-9.48-11.92-14.85-13.68-17.85a12.91,12.91,0,0,0-2-2.68c-1.43-1.42,1.32-3,1.49-8.88.11-3.7-1-4.4,2.34-13a8.86,8.86,0,0,0,.34-4.42c-.14-1.09-.94-2.06.06-2.94,3.37-3,2.84-8-.31-11.2a35.83,35.83,0,0,0-2.8-2.43c-1.25-1-.56-2-.94-4.21-.29-1.69,1-2,2.3-3.87,4.29-6.12,1.94-5.63,10.72-21.43,4.37-7.84,4.82-12.63,7.75-12.84,1.63-.12,2.12-3,3.86-4.32a2.76,2.76,0,0,0,.91-1.51C139,7.94,138.91,7.5,138.66,7.41ZM77.93,66.83c-3.21,3.88-1.29-7.33.07-11.19a1.41,1.41,0,0,1,1.5-1.09c2,.1,4.77-3.64,5.18-3.64.15.09.12.25.14.38.48,3.15-.22,5.86-.42,7.92C84.26,60.61,82.85,60.86,77.93,66.83ZM94.85,79a9.38,9.38,0,0,1-.12-2.75A6.23,6.23,0,0,1,94.85,79Zm15.45,45.05c-.54-.4.47-2.43-1.81-2.64l0-.08a16.75,16.75,0,0,1-2.68,0c0-.09-.1-.16-.09-.22.25-1.83.35-3.74,1-3,3.71,4.1,2,2.05,4.5,4.73Z"/><path class="cls-1" d="M51.81,95.32c0-1.79-.09-2,.27-2.09,1.53-.32,1.67.43,1.76,1.32a6.06,6.06,0,0,1-.18,2.31c-.27.67-.73.65-1.51.6-.45,0-.36-.35-.36-2.14Z"/><path class="cls-1" d="M66,93.11c.35.11.26,0,.55,3.25.74,8.58,1,8.29.09,8.28-1.76,0-1.47.23-1.37-1.38.17-2.76.4-5.52.6-8.28C65.89,94.36,65.93,93.74,66,93.11Z"/><path class="cls-1" d="M73.67,111c-2.51-26.58-.85-23.6-6.78-23.6H19.94c-8.41-1.86-11.59,8-6.13,13.32,2.78,2.73-2.27-.4-2.67,2.73,0,.3,0,2.55,0,3,.24,5.92,4.43,8.11,9.2,7.08,0,0,23.63,0,23.81,0H69.64C72.72,113.59,73.94,113.86,73.67,111Z"/><path class="cls-2" d="M27,88.91c1,0,2.09,0,3.14,0,.77,0,.58-.23.58,5.89,0,2.34-.11,2.4.59,2.4,2.34,0,1.38,1,1.59-7.56,0-.67,0-.72.68-.72,4.35-.06,4-.29,4,1.14v20.88c0,1.36.54,1.2-4.08,1.14-.76,0-.57.56-.57-9.25,0-.74.09-1.25-.36-1.26-2,0-1.81-.32-1.82,1.61,0,9,.15,8.89-.36,8.89-4.73,0-4.23.37-4.23-1.19C26.13,86.67,25.79,88.91,27,88.91Z"/><path class="cls-2" d="M66.15,88.91c4.15,0,3.93-.14,4,.57,2.45,24.09,2.21,22.58,1.76,22.59-3.85,0-4,.14-4-.38-.34-3.78,0-3.35-1.58-3.36-1.9,0-1.46-.41-1.76,3.23-.05.64.18.56-4,.52-.84,0-.57,1.23,1.56-21.66.14-1.46,0-1.5.92-1.51ZM66,93.11c-.31,4.4-.53,6.93-.73,10.15-.1,1.61-.39,1.36,1.37,1.38.74,0,.85.92-.33-11C66.26,93.48,66.32,93.22,66,93.11Z"/><path class="cls-2" d="M20.75,95.53c-.48,0-1,.17-1.43-.1-.62-.41.29-2.34-1.13-2.45s-1.57,1.7-.17,3.13c3.43,3.46,5.93,4.9,5.92,8.94,0,3.66-.73,6.8-4.39,7.21s-6.35-.87-6.83-4.68a26.86,26.86,0,0,1-.09-3.7.38.38,0,0,1,.4-.43c3.9,0,4.12-.13,4.13.42,0,2.79,0,3,.16,3.46a1,1,0,0,0,2-.1c1.12-6.06-8.76-6.85-6.36-15,.94-3.19,4-4,7.12-3.26s3.58,3.25,3.79,6.15c0,.6-.59.46-1.4.46Z"/><path class="cls-2" d="M40.44,88.93c4.47,0,4.12-.3,4.12,1.08,0,24.27.47,22.08-1.09,22.08-3.87,0-3.4.31-3.4-1.38C40.07,87.62,39.91,88.93,40.44,88.93Z"/><path class="cls-2" d="M56.53,100c1.93,1.51,1.59,1.23,1.53,11.52,0,.51-.08.58-.59.58-4.21,0-3.92.12-3.93-.6-.09-8.9.5-10.09-1.46-9.94-.42,0-.31-.32-.31,9.26,0,1.63.5,1.3-4.26,1.28-.53,0-.44-.43-.44-1.19V90.13c0-1.3-.13-1.22,1.2-1.22,6.24,0,6.55,0,7.28.14a3.38,3.38,0,0,1,2.51,2.73C59.57,98.92,56.58,99.56,56.53,100Zm-4.72-4.66h0c0,2.4-.17,2.13,1,2.15s1.12-1.82,1-2.92-.34-1.41-1.54-1.34c-.25,0-.48.05-.48.33C51.81,94.13,51.81,94.73,51.81,95.32Z"/><path class="cls-2" d="M89.78,135.48q0,4.54,0,9.08c0,1.65.19,1.43-1.42,1.44-2.91,0-3.09.1-3.1-.43,0-1.12,0-22,0-22.12,0-.54.07-.61.56-.62,4.57,0,4.21-.12,4.35.58,1.68,8.76,1.6,8.77,2,9.5,0-10.69-.21-10.07.52-10.07,4.48,0,4-.28,4,1.25v20.66c0,1.38.13,1.25-1.27,1.26-3.51,0-3.26.13-3.41-.65-2.23-11.06-1.74-9-2-9.87Z"/><path class="cls-2" d="M119.56,129.47c-2.24,0-2.36.11-2.39-.48,0-.91.16-2.12-1-2.1s-1.71,1.55.28,3.46c3.68,3.52,6.72,5.76,5.39,11.43-.56,2.38-1.42,4.09-4.21,4.39-7,.78-6.94-4.25-7-8.39,0-.56.13-.47,4.22-.42,1.1,0-.61,4.52,1.48,4.58a.86.86,0,0,0,1-.74c.55-3.41-1.07-4.14-4.37-7.54-4.2-4.34-2.26-10.39,2-11s7,1.36,6.93,6.37c0,.56-.35.42-2.32.42Z"/><path class="cls-2" d="M130.73,129.47c-1.11,0,.23-2.47-1.39-2.58-1.28-.08-1.82,1.55.27,3.56,3.22,3.08,6.76,5.53,5.24,11.67-.55,2.23-1.57,3.74-4,4-2.84.35-5.69-.38-6.55-3.17-.54-1.75-.47-2.47-.45-5.22a.38.38,0,0,1,.4-.43c4.21,0,4.12-.15,4.13.53,0,2.43-.08,2.88.2,3.45a1,1,0,0,0,1.91-.16c.6-3.08-1.15-4.27-4.42-7.52-4.56-4.54-2.09-12.76,5.29-10.78,2.91.78,3.5,3.2,3.69,6.11C135,129.55,135,129.56,130.73,129.47Z"/><path class="cls-2" d="M100.29,122.83c8,0,7.6,0,8,0s.39.07.36,4c0,.55-.13.43-3.43.43-1.28,0-1.15-.56-1.09,4,0,.53.21.48,1.14.48,3.46,0,3.19-.17,3.2.91,0,.31,0,2.63,0,3.13s-.14.3-3.88.33a.38.38,0,0,0-.43.4c0,4.85-.12,4.9.41,4.91,1,0,2.5,0,3.82,0,.77,0,.66-.18.63,4,0,.54-.3.48-1.16.48-7.84,0-7.62,0-8.08,0s-.35-.42-.35-1.26C99.35,120.65,98.94,122.83,100.29,122.83Z"/><path class="cls-2" d="M55.65,123.83c0-1,0-1,1-1,8.42,0,8.32-.13,8.32.35q0,1.91,0,3.81c0,.45-.23.34-3.4.35-1.4,0-1.29-.4-1.22,3.1,0,.88.34.43,3.89.57.62,0,.55-.11.51,3.92,0,.91-.4.34-3.89.55-.68,0-.51-.66-.51,9.1,0,1.73.63,1.47-4.13,1.42C55.42,146,55.63,147.64,55.65,123.83Z"/><path class="cls-2" d="M75.93,127.8c0-.67-.24-.46-2.15-.51-.79,0-.64.2-.63-4,0-.49.45-.42,1-.42,9.36,0,9.12-.12,9.14.33,0,1,0,3,0,3.7s-.43.41-2.32.45c-.58,0-.41-1.14-.42,17.49,0,1.33.11,1.2-1.2,1.2-3.82,0-3.41.3-3.41-1.37C75.93,138,75.94,128,75.93,127.8Z"/><path class="cls-2" d="M67.27,122.84c4.6,0,4.13-.32,4.13,1.08,0,24.26.42,22.09-1,22.09-4,0-3.52.32-3.52-1.38C66.89,121.55,66.71,122.84,67.27,122.84Z"/></svg>