<svg id="Layer_1" data-name="Layer 1" xmlns="http://www.w3.org/2000/svg" xmlns:xlink="http://www.w3.org/1999/xlink" viewBox="0 0 64 64"><defs><style>.cls-1{fill:url(#linear-gradient);}.cls-2{fill:#f0f0f0;}</style><linearGradient id="linear-gradient" x1="32" y1="64" x2="32" gradientUnits="userSpaceOnUse"><stop offset="0" stop-color="#fce" stop-opacity="0.2"/><stop offset="0.03" stop-color="#ffc2eb" stop-opacity="0.28"/><stop offset="0.09" stop-color="#ffb3e6" stop-opacity="0.4"/><stop offset="0.15" stop-color="#ffa8e2" stop-opacity="0.49"/><stop offset="0.21" stop-color="#ff9fdf" stop-opacity="0.55"/><stop offset="0.29" stop-color="#ff9bde" stop-opacity="0.59"/><stop offset="0.38" stop-color="#f9d" stop-opacity="0.6"/><stop offset="0.5" stop-color="#ff8bd8" stop-opacity="0.65"/><stop offset="0.72" stop-color="#ff68cd" stop-opacity="0.79"/><stop offset="1" stop-color="#f3b"/></linearGradient></defs><rect class="cls-1" width="64" height="64" rx="2"/><path class="cls-2" d="M32.65,23.43a1.12,1.12,0,0,1-.71-.25,1.11,1.11,0,0,1-.13-1.55L47.55,3a1.1,1.1,0,0,1,1.68,1.41L33.49,23A1.1,1.1,0,0,1,32.65,23.43Z"/><path class="cls-2" d="M45.57,18.68a1.1,1.1,0,0,1-.78-1.88L52.57,9a1.1,1.1,0,0,1,1.55,1.55l-7.78,7.78A1.09,1.09,0,0,1,45.57,18.68Z"/><path class="cls-2" d="M35.57,28.68a1.11,1.11,0,0,1-.78-.32,1.09,1.09,0,0,1,0-1.55L42,19.58a1.1,1.1,0,1,1,1.55,1.55l-7.23,7.23A1.09,1.09,0,0,1,35.57,28.68Z"/><path class="cls-2" d="M43.43,29a1.08,1.08,0,0,1-.79-.34,1.09,1.09,0,0,1,0-1.55L54.92,15.42A1.1,1.1,0,0,1,56.43,17L44.19,28.67A1.09,1.09,0,0,1,43.43,29Z"/><path class="cls-2" d="M28.26,25.93l2.41,4.95a2.69,2.69,0,0,0,2,1.5l5.43.91-4,4.18a2.74,2.74,0,0,0-.72,2.28l.85,5.7-4.71-2.52a2.77,2.77,0,0,0-1.29-.32,2.73,2.73,0,0,0-1.28.32l-4.72,2.52.85-5.7a2.68,2.68,0,0,0-.72-2.28l-4-4.18,5.43-.91a2.72,2.72,0,0,0,2-1.5l2.4-4.95m0-4.32a.55.55,0,0,0-.48.3l-3.9,8a.53.53,0,0,1-.39.29L15,31.65a.53.53,0,0,0-.41.35.51.51,0,0,0,.12.54L20.8,39a.51.51,0,0,1,.14.45l-1.33,9a.51.51,0,0,0,.22.51.5.5,0,0,0,.31.1.57.57,0,0,0,.25-.06L28,44.87a.47.47,0,0,1,.25-.07.43.43,0,0,1,.25.07l7.63,4.07a.54.54,0,0,0,.25.06.5.5,0,0,0,.31-.1.53.53,0,0,0,.22-.51l-1.34-9a.57.57,0,0,1,.14-.45l6.11-6.44A.53.53,0,0,0,42,32a.52.52,0,0,0-.42-.35L33,30.22a.55.55,0,0,1-.39-.29l-3.9-8a.53.53,0,0,0-.48-.3Z"/></svg>