<svg id="Layer_1" data-name="Layer 1" xmlns="http://www.w3.org/2000/svg" xmlns:xlink="http://www.w3.org/1999/xlink" viewBox="0 0 64 64"><defs><style>.cls-1{fill:url(#linear-gradient);}.cls-2{fill:#f0f0f0;}</style><linearGradient id="linear-gradient" x1="32" y1="64" x2="32" gradientUnits="userSpaceOnUse"><stop offset="0" stop-color="#fce" stop-opacity="0.2"/><stop offset="0.03" stop-color="#ffc2eb" stop-opacity="0.28"/><stop offset="0.09" stop-color="#ffb3e6" stop-opacity="0.4"/><stop offset="0.15" stop-color="#ffa8e2" stop-opacity="0.49"/><stop offset="0.21" stop-color="#ff9fdf" stop-opacity="0.55"/><stop offset="0.29" stop-color="#ff9bde" stop-opacity="0.59"/><stop offset="0.38" stop-color="#f9d" stop-opacity="0.6"/><stop offset="0.5" stop-color="#ff8bd8" stop-opacity="0.65"/><stop offset="0.72" stop-color="#ff68cd" stop-opacity="0.79"/><stop offset="1" stop-color="#f3b"/></linearGradient></defs><rect class="cls-1" width="64" height="64" rx="2"/><circle class="cls-2" cx="7" cy="41" r="3"/><circle class="cls-2" cx="22" cy="37" r="3"/><circle class="cls-2" cx="43" cy="24" r="3"/><circle class="cls-2" cx="58" cy="20" r="3"/><path class="cls-2" d="M7.5,43a1.5,1.5,0,0,1-.41-2.94l13.8-3.94,21-13,14.2-4.06a1.5,1.5,0,0,1,.82,2.88l-13.8,3.94-21,13L7.91,42.94A1.45,1.45,0,0,1,7.5,43Z"/><path class="cls-2" d="M56.5,49H7.5a1.5,1.5,0,0,1,0-3h49a1.5,1.5,0,0,1,0,3Z"/></svg>