<svg id="Layer_1" data-name="Layer 1" xmlns="http://www.w3.org/2000/svg" xmlns:xlink="http://www.w3.org/1999/xlink" viewBox="0 0 64 64"><defs><style>.cls-1{fill:url(#linear-gradient);}.cls-2{fill:#f0f0f0;}</style><linearGradient id="linear-gradient" x1="32" y1="64" x2="32" gradientUnits="userSpaceOnUse"><stop offset="0" stop-color="#fce" stop-opacity="0.2"/><stop offset="0.03" stop-color="#ffc2eb" stop-opacity="0.28"/><stop offset="0.09" stop-color="#ffb3e6" stop-opacity="0.4"/><stop offset="0.15" stop-color="#ffa8e2" stop-opacity="0.49"/><stop offset="0.21" stop-color="#ff9fdf" stop-opacity="0.55"/><stop offset="0.29" stop-color="#ff9bde" stop-opacity="0.59"/><stop offset="0.38" stop-color="#f9d" stop-opacity="0.6"/><stop offset="0.5" stop-color="#ff8bd8" stop-opacity="0.65"/><stop offset="0.72" stop-color="#ff68cd" stop-opacity="0.79"/><stop offset="1" stop-color="#f3b"/></linearGradient></defs><rect class="cls-1" width="64" height="64" rx="2"/><path class="cls-2" d="M27.51,38.05a4.21,4.21,0,0,1-4.21-4.21V15.21a4.22,4.22,0,0,1,6.32-3.65l16.13,9.32a4.21,4.21,0,0,1,0,7.3L29.62,37.49A4.27,4.27,0,0,1,27.51,38.05Zm.83-24.26a1.66,1.66,0,0,0-1.65,0,1.64,1.64,0,0,0-.82,1.42V33.84a1.65,1.65,0,0,0,.82,1.43,1.67,1.67,0,0,0,1.65,0L44.47,26a1.65,1.65,0,0,0,0-2.85Z"/><path class="cls-2" d="M24.37,43.19a1.66,1.66,0,0,1-2.48-1.43c0-.11,0-23.5,0-22a.31.31,0,0,0-.46-.27h0a4.23,4.23,0,0,0-2.11,3.65V41.76a4.22,4.22,0,0,0,6.32,3.65L41.78,36.1a4.23,4.23,0,0,0,2.11-3.65.28.28,0,0,0-.43-.25C29.47,40.27,38.42,35.12,24.37,43.19Z"/><path class="cls-2" d="M20.4,50a1.66,1.66,0,0,1-2.48-1.43c0-.11,0-23.49,0-22a.31.31,0,0,0-.46-.26h0A4.2,4.2,0,0,0,15.36,30V48.6a4.22,4.22,0,0,0,6.32,3.65l16.13-9.31a4.23,4.23,0,0,0,2.11-3.65.29.29,0,0,0-.44-.25C34.32,42,26,46.83,20.4,50Z"/></svg>